<svg version="1.1" xmlns="http://www.w3.org/2000/svg" viewBox="0 0 534 672" width="534" height="672">
  <!-- svg-source:excalidraw -->
  
  <defs>
    <style>
      @font-face {
        font-family: "Virgil";
        src: url("https://excalidraw.com/Virgil.woff2");
      }
      @font-face {
        font-family: "Cascadia";
        src: url("https://excalidraw.com/Cascadia.woff2");
      }
    </style>
  </defs>
  <rect x="0" y="0" width="534" height="672" fill="#ffffff"></rect><g transform="translate(127 30) rotate(0 140.80000000000007 44)"><text x="0" y="62.00000000000003" font-family="Virgil, Segoe UI Emoji" font-size="70.40000000000002px" fill="#1864ab" text-anchor="start" style="white-space: pre;" direction="ltr">Didlydoo</text></g><g stroke-linecap="round" transform="translate(10 10) rotate(0 257 326)"><path d="M-0.4 0.71 C194.74 1.49, 390.12 1.68, 514.17 -0.72 M-0.2 -0.38 C182.42 -0.57, 365.25 -0.8, 514.17 0.31 M513.31 0.25 C511.46 133.03, 511.66 264.87, 514.05 651.49 M513.94 -0.03 C516.21 234.1, 515.91 467.96, 514.29 651.88 M514 652.57 C358.85 652.25, 203.77 652.08, 0.49 651.95 M514.25 651.93 C359.17 651.57, 204.51 651.85, 0.22 651.95 M0.24 652.54 C1.87 469.7, 2.16 287.83, 0.7 -0.43 M-0.12 652.13 C2.36 469.99, 1.98 288.02, -0.25 0.06" stroke="#000000" stroke-width="1" fill="none"></path></g><g transform="translate(34 209) rotate(0 163.67999999999995 16.5)"><text x="0" y="23" font-family="Virgil, Segoe UI Emoji" font-size="26.39999999999999px" fill="#000000" text-anchor="start" style="white-space: pre;" direction="ltr">Jean-René's Bar-Mitzvah</text></g><g transform="translate(41 248) rotate(0 200 10)"><text x="0" y="14" font-family="Virgil, Segoe UI Emoji" font-size="15.69844789356985px" fill="#000000" text-anchor="start" style="white-space: pre;" direction="ltr">Come feast with me, there will be free kosher food.</text></g><g stroke-linecap="round" transform="translate(39 318) rotate(0 227.5 56.5)"><path d="M0.33 0.35 C142.3 -2.08, 283.54 -1.49, 455.11 -0.4 M-0.09 0.18 C118.83 0.01, 237.07 -0.23, 455.32 -0.46 M454.39 1.33 C454.31 33.86, 457.04 65.08, 453.35 113.92 M455.58 -0.8 C454.01 29.88, 455 58.38, 454.49 113.81 M454.1 112.7 C279.97 114.97, 106.47 114.91, -0.06 112.82 M454.75 112.8 C294.01 111.24, 132.96 111.27, -0.24 113.29 M0.11 113.63 C1.02 72.31, 1.41 29.64, 1.75 1.21 M0.84 113.53 C-1.47 89.06, -1.36 64.16, -0.91 0.73" stroke="#000000" stroke-width="1" fill="none"></path></g><g stroke-linecap="round"><g transform="translate(39 356) rotate(0 227.03632666314024 -1.6556435590423462)"><path d="M-0.97 0.47 C74.7 -0.02, 376.89 -1.63, 452.91 -2.12 M0.72 -0.32 C76.84 -1.21, 379.33 -3.08, 455.04 -3.79" stroke="#000000" stroke-width="1" fill="none"></path></g></g><g stroke-linecap="round"><g transform="translate(37 395) rotate(0 227.13707293445242 -0.2668710387267197)"><path d="M-0.97 -0.13 C74.47 -0.07, 377.32 0.59, 453.04 0.81 M0.72 -1.25 C76.49 -1.56, 379.99 -1.01, 455.25 -0.89" stroke="#000000" stroke-width="1" fill="none"></path></g></g><g transform="translate(55 326) rotate(0 31 12.5)"><text x="0" y="18" font-family="Virgil, Segoe UI Emoji" font-size="20px" fill="#000000" text-anchor="start" style="white-space: pre;" direction="ltr">Michou</text></g><g transform="translate(56 362) rotate(0 46 12.5)"><text x="0" y="18" font-family="Virgil, Segoe UI Emoji" font-size="20px" fill="#000000" text-anchor="start" style="white-space: pre;" direction="ltr">Barbabra</text></g><g transform="translate(52 398) rotate(0 51.5 12.5)"><text x="0" y="18" font-family="Virgil, Segoe UI Emoji" font-size="20px" fill="#000000" text-anchor="start" style="white-space: pre;" direction="ltr">Kevin Spicy</text></g><g stroke-linecap="round"><g transform="translate(180 319) rotate(0 -0.08371899699795904 56.325643313583015)"><path d="M0.37 -0.46 C0.35 18.43, -0.97 95.14, -1.14 114.4 M-0.9 -1.75 C-0.48 17.29, 1.11 93.3, 0.97 112.48" stroke="#000000" stroke-width="1" fill="none"></path></g></g><g transform="translate(194 287) rotate(0 53 12.5)"><text x="0" y="18" font-family="Virgil, Segoe UI Emoji" font-size="20px" fill="#000000" text-anchor="start" style="white-space: pre;" direction="ltr">11/12/2024</text></g><g transform="translate(349 289) rotate(0 59 12.5)"><text x="0" y="18" font-family="Virgil, Segoe UI Emoji" font-size="20px" fill="#000000" text-anchor="start" style="white-space: pre;" direction="ltr">07/01/2025</text></g><g stroke-linecap="round"><g transform="translate(316 313) rotate(0 0.7240394299985269 60.97636135999113)"><path d="M-0.48 1.04 C-0.54 21.09, -0.58 100.22, -0.59 119.92 M1.46 0.54 C1.83 20.82, 2.33 101.48, 1.82 121.41" stroke="#000000" stroke-width="1" fill="none"></path></g></g><g transform="translate(223 326) rotate(0 5 12.5)"><text x="0" y="18" font-family="Virgil, Segoe UI Emoji" font-size="20px" fill="#5c940d" text-anchor="start" style="white-space: pre;" direction="ltr">V</text></g><g transform="translate(227 364) rotate(0 5 12.5)"><text x="0" y="18" font-family="Virgil, Segoe UI Emoji" font-size="20px" fill="#5c940d" text-anchor="start" style="white-space: pre;" direction="ltr">V</text></g><g transform="translate(394 323) rotate(0 5 12.5)"><text x="0" y="18" font-family="Virgil, Segoe UI Emoji" font-size="20px" fill="#5c940d" text-anchor="start" style="white-space: pre;" direction="ltr">V</text></g><g transform="translate(233 397) rotate(0 6 12.5)"><text x="0" y="18" font-family="Virgil, Segoe UI Emoji" font-size="20px" fill="#c92a2a" text-anchor="start" style="white-space: pre;" direction="ltr">X</text></g><g transform="translate(395 361) rotate(0 6 12.5)"><text x="0" y="18" font-family="Virgil, Segoe UI Emoji" font-size="20px" fill="#c92a2a" text-anchor="start" style="white-space: pre;" direction="ltr">X</text></g><g stroke-linecap="round" transform="translate(332 135) rotate(0 80 20)"><path d="M0 0 C0 0, 0 0, 0 0 M0 0 C0 0, 0 0, 0 0 M-0.55 6.78 C0.5 4.95, 3.19 2.46, 4.72 0.24 M-0.15 6.68 C1.38 4.51, 2.98 3.04, 5.07 0.04 M-0.82 12.56 C2.14 9.46, 4.69 7.43, 10.9 -0.92 M0.16 12.44 C4.07 7.22, 7.32 3.48, 10.63 -0.61 M1.82 18.94 C3.94 10.69, 13.86 3.36, 17.55 -0.19 M0.56 17.83 C3.2 14.06, 7.87 9.03, 16.47 -0.08 M1.29 22.68 C7.07 17.37, 11.09 13.13, 20.7 1.22 M-0.16 23.38 C9.06 14.14, 16.06 4.32, 20.71 0.02 M-0.66 31.02 C9.5 20.52, 18 10.04, 24.39 1.81 M-0.98 30.14 C9.27 21.03, 16.15 11.14, 25.72 0.09 M-0.59 36.69 C7.66 24.24, 19.87 17.06, 31.83 1.13 M-0.68 36.62 C10.39 24.82, 20.13 13.56, 31.69 -0.02 M0.33 41.23 C11.41 30.02, 17.57 21.26, 36.72 1.99 M1.71 40.93 C9.62 30.12, 20.2 20.41, 36.58 1.21 M6.93 41.72 C18.38 27.79, 30.54 10.17, 43.08 -1.08 M6.17 41.3 C16.91 28.52, 28.88 17, 41.65 0.18 M13.26 40.97 C28.14 23.23, 38.23 10.04, 48.59 0.6 M12.64 41.15 C19.53 33.32, 26.77 24.15, 47.35 0.51 M16.49 41.93 C30.94 26.41, 42.05 9.77, 52.34 -1.71 M17.47 41.35 C29.79 26.44, 43.73 10.19, 52.86 0.26 M24.7 40.63 C32.33 28.9, 39.57 22.39, 58.2 0.28 M22.95 39.95 C33.19 27.1, 45.7 15.15, 58 0.29 M28.24 40.61 C35.9 30.53, 44.78 20.43, 62.62 0.29 M27.31 40.54 C41.07 24.35, 55.73 9.64, 64.75 -0.55 M31.54 41.38 C41.41 31.24, 47.9 21.22, 69.91 -0.03 M34.15 41.47 C46.74 25.31, 62.15 8.47, 69.17 0.94 M36.41 40.84 C48.28 31.68, 54.81 20.94, 76.11 1.29 M38.41 42.19 C48.76 28.98, 61.03 15.27, 74.92 -0.47 M45.86 39.72 C59.93 24.63, 71.89 10.19, 80.25 0.99 M43.89 40.46 C56.28 26.38, 69.33 10.8, 79.19 -0.09 M47.4 40.04 C56.98 30.92, 67.36 20.55, 84.17 -0.98 M49.15 40.7 C58.57 29.32, 69.49 16.15, 84.16 -0.11 M52.86 41.5 C67.22 26.69, 82.61 10.79, 91.87 0.99 M55.02 41.23 C62.98 31.41, 72.09 20.67, 91.03 0.75 M57.74 39.98 C67.67 30.66, 77.62 21.95, 97.29 -1.44 M60.57 40.56 C67.1 31.13, 75.79 23.77, 95.41 0.48 M64.94 39.92 C75.71 26.05, 87.81 13.53, 99.62 -0.05 M64.55 40.66 C78.69 24.74, 93.09 8.77, 101.36 0.08 M72.15 40.79 C76.72 33.11, 87.07 23.95, 107.13 -1.69 M69.4 41.3 C83.83 26.69, 96.73 10.69, 106.79 -1.17 M74.96 42.28 C86.29 29.38, 97.74 17.04, 112.47 -1.8 M76.01 41.99 C83.58 31.9, 92.64 20.67, 111.51 0.59 M81.48 42.93 C90.68 27.88, 102.47 17.1, 115.84 0.78 M81.03 40.57 C91.69 27.2, 103.85 14.87, 115.95 -0.2 M84.92 40.93 C97.82 24.94, 113.48 8.38, 123.57 -1.56 M85.06 40.75 C99.25 25.96, 113.58 10.28, 122.48 0.05 M92.75 41.2 C99.49 30.84, 107.72 22.39, 128.71 -0.43 M90.53 41.08 C103.16 29.33, 113.35 17.25, 127.64 -0.42 M96.01 39.88 C111.22 26.1, 122.18 10.01, 132.21 -0.32 M96.58 42.32 C104.7 32.29, 114.3 21.68, 131.95 0.31 M103.13 42.74 C113.04 31.44, 119.63 18.77, 136.21 1.88 M101.63 41.62 C116.48 24.5, 129.6 9.73, 136.87 1.17 M105.23 41.67 C119.5 26.99, 134.73 10.95, 141.85 -0.71 M106.26 41.9 C115.2 32.43, 122.28 25.2, 143.27 0.31 M113.95 41.06 C121.21 29.64, 132.56 20.15, 146.61 -0.5 M111.75 40.05 C124.01 28.59, 135.94 15.85, 148.43 0.44 M118.74 42.24 C133.48 25.67, 146.4 6.87, 154.09 -1.03 M116.98 42.28 C130.23 27.93, 141.35 12.83, 154.45 -0.94 M124.7 41.97 C131.32 30.83, 141.48 22.06, 159.36 -0.45 M122.96 40.33 C133.95 28.72, 144.02 17.23, 159.3 -0.21 M129.86 40.84 C136.06 34.11, 142.37 26.28, 160.74 1.06 M127.77 40.81 C136.81 30.93, 144.92 21.65, 163.23 2.89 M135.01 41.67 C144.91 27.04, 155.49 14.03, 163.83 6.82 M133.03 41.46 C142.95 30.84, 153.25 18.39, 162.42 7.54 M137.04 42.06 C150.25 31.75, 159.36 22.09, 163.16 13.49 M138.86 40.43 C144.47 35.64, 150.26 28.02, 163.39 13.53 M142.69 40.68 C149.34 35.68, 151.3 31.78, 163.71 20.6 M144.37 40.56 C148.81 36.94, 152.38 32.36, 162.06 19.72 M149.92 41.85 C153.31 34.21, 158.31 30.36, 161.95 25.19 M148.62 40.66 C153.84 37.11, 157.42 32.43, 163.51 26.41 M154.4 41.42 C157.43 39.03, 160.36 35.11, 162.87 33.51 M155.17 41.39 C157.33 39.42, 158.2 37.2, 162.75 32.67 M-0.18 39.84 C-0.18 39.84, -0.18 39.84, -0.18 39.84 M-0.18 39.84 C-0.18 39.84, -0.18 39.84, -0.18 39.84 M5.5 39.93 C4.65 37.77, 1.83 37.71, 0.06 34.74 M6.24 40.34 C4.39 38.99, 2.78 37.39, 0.28 35.12 M12 40.06 C8 36.25, 7.36 34.21, -1.22 28.27 M11.63 40.26 C8.28 35.16, 2.74 32.47, -0.93 29.98 M19.97 41.08 C11.68 33.9, 8.94 31.69, -0.26 24.24 M19.13 39.99 C11.64 33.6, 3.45 28.45, -0.07 23.3 M23.49 39.32 C15.88 33.95, 6.59 25.18, -1.69 16.76 M24.58 40.89 C17.38 34.47, 9.67 27.78, 0.64 18.33 M29.61 39.32 C24.81 34.31, 19.57 29.02, 0.85 13.36 M29.68 40.44 C18.67 30.42, 9.61 21.39, 0.24 13.83 M37.94 41.62 C24.19 29.72, 10.64 19.14, 0.34 7.18 M36.77 39.18 C28.03 32.67, 20.02 24.92, -0.8 8.47 M43.95 38.64 C28.2 28.21, 17.64 15.25, 0.74 4.46 M42.72 40.53 C28.22 28.71, 13.49 15.73, -0.46 3.59 M47.56 38.38 C35.12 26.05, 21.36 14.49, 0.99 -2.96 M49.16 39.32 C36.49 30.45, 25.49 19.54, 1.47 -0.46 M56.47 40.28 C40.47 25.58, 24.28 11.27, 7.65 -2 M54.45 39.49 C45.28 32.86, 34.81 23.54, 7.72 -1.81 M58.92 39.6 C41.53 23.14, 25.19 8.29, 12.33 -2.97 M60.15 39.31 C50.65 31.43, 39.12 22.98, 13.59 -1.87 M66.56 41.85 C55.59 33.88, 48.56 22.85, 20.41 -1.43 M66.49 39.66 C52.88 28.62, 39.96 16.73, 19.31 -0.37 M71.72 40.63 C59.31 30.06, 48.43 15.52, 24.98 -2.89 M73.33 38.71 C58.02 27.26, 45.03 15.02, 24.72 -2.17 M78.01 39.29 C60.49 24.37, 43.75 8.49, 31.49 -3.19 M79.4 39.43 C62.79 26.26, 47.17 10.84, 31.47 -0.82 M85.6 40.82 C69.6 24.96, 49.48 8.75, 37 -0.58 M85.23 40.31 C69.03 24.81, 50.77 10.28, 39.02 -0.81 M90.04 38.21 C74.13 26.37, 58.55 11.81, 43.04 -3.37 M90.65 39.59 C82.29 31.97, 72.02 22.02, 43.07 -2.38 M99.09 38.89 C85.76 29.82, 73.58 19.81, 50.39 0.5 M97.26 40.52 C81.84 25.92, 63.3 11.48, 51.07 -1.19 M104 40.57 C88.34 27.8, 71.44 14.36, 56.39 -2.71 M102.39 39.03 C85.75 25.49, 68.02 8.25, 55.16 -1.69 M108.12 38.9 C97.97 27.72, 84.52 14.79, 61.53 -2.82 M109.3 40.29 C100.34 30.71, 89.88 22.85, 61.38 -1.6 M114.16 39.34 C100.15 27.49, 85.8 17.18, 66.74 0.05 M115.18 40.37 C98.33 23.76, 79.17 7.17, 68.69 -1.16 M121.03 41.56 C108.6 30.66, 95.41 15.84, 72.22 -2.03 M121.6 39.51 C109.81 28.76, 97.83 18.67, 74.38 -0.95 M126.68 41.84 C119.95 32.84, 109.27 22.28, 82.23 -0.47 M128 40.34 C114.71 28.4, 103.33 17.64, 80.56 -0.59 M133.34 38.94 C120.64 29.59, 106.23 14.05, 84.41 -2.25 M134.63 40.61 C122.02 29.92, 112.04 21.53, 86.15 -1.07 M142.16 39.73 C119.45 21.7, 102.02 5.91, 94.38 -2.31 M139.78 40.7 C128.8 28.92, 116.22 19.3, 93.07 -2.22 M146.45 41.11 C129.57 26.8, 114.06 10.17, 98.98 0.38 M146.75 40.3 C131.13 26.79, 116.51 13.34, 98.23 -1.03 M150.56 40.34 C134.6 26.88, 121.39 12.74, 105.13 -0.85 M151.33 40.66 C137.25 28.16, 124.67 14.73, 103.96 -2.38 M158.66 39.52 C144.22 28.02, 130.6 14.9, 110.67 -1.9 M158.26 39.86 C145.7 28.97, 135.15 18.78, 111.54 -0.82 M163.78 39.39 C146.94 26.8, 135.16 12.87, 117.58 -2.1 M162.91 38.51 C147.67 24.48, 131.37 11.81, 116.12 -1.83 M163.4 33.71 C152.24 24.08, 143.35 15.78, 122.66 -2.52 M162.57 32.93 C153.67 23.66, 143.91 16.38, 123.95 -2.35 M162.56 28.33 C152.44 20.47, 143.63 11.11, 130.74 -0.1 M162.14 28.06 C153.55 20.99, 146.39 13.08, 129.38 -2.07 M161.32 21.05 C156.09 15.09, 147.98 9.73, 133.54 -1.26 M161.34 22.2 C152.29 12.23, 141.05 2.52, 134.26 -1.15 M161.16 16.06 C155.5 10.58, 149.29 4.42, 142.49 -1.49 M161.67 17.26 C155.24 11.68, 149.52 6.6, 142.49 -1.01 M161.48 11.63 C157.73 9.83, 152.84 4.18, 148.03 -1.52 M162.65 11.3 C155.75 7, 151.14 2.69, 147.91 -2.64 M162.06 6.63 C159.69 3.15, 155.34 1.75, 152.8 -0.41 M161.42 5.71 C160.01 3.87, 158.41 2.79, 153.05 -1.74" stroke="#82c91e" stroke-width="0.5" fill="none"></path><path d="M-0.65 1.03 C42.97 1.9, 87.63 1.17, 161.6 1.57 M0.32 -0.68 C56.27 -1.73, 113.1 0.01, 159.7 0.96 M158.12 1.51 C160.79 7.69, 160.82 17.93, 158.14 40.83 M159.2 0.24 C159.46 16.7, 159.61 32.54, 159.69 39.59 M159.34 40.07 C97 39.9, 37.87 39.65, -0.76 38.02 M160.92 39.9 C117.4 38.6, 75.43 38.81, 0.29 39.83 M-0.96 38.1 C-1.08 24.16, 0.34 10.84, -1.41 0.55 M-1 39.74 C0.14 28.4, -0.01 15.23, -0.42 0.52" stroke="#2b8a3e" stroke-width="1" fill="none"></path></g><g transform="translate(343 144) rotate(0 70 12.5)"><text x="0" y="18" font-family="Virgil, Segoe UI Emoji" font-size="20px" fill="#2b8a3e" text-anchor="start" style="white-space: pre;" direction="ltr">ADD an event</text></g><g stroke-linecap="round" transform="translate(44 446) rotate(0 68.5 19)"><path d="M0 0 C0 0, 0 0, 0 0 M0 0 C0 0, 0 0, 0 0 M-0.3 7.02 C1.61 4.59, 2.35 2.94, 4.36 0.75 M-0.43 6.54 C1.51 4.41, 2.29 3.17, 4.92 0.73 M0.75 12.85 C4.01 6.94, 8 2.32, 9.86 0.17 M-0.05 12.23 C3.14 9.16, 4.94 5.21, 10.93 -0.55 M0.45 17.29 C5.43 13.65, 7.48 10.5, 13.84 -0.1 M0.81 18.3 C5.13 12.33, 9.79 6.65, 15.68 0.93 M1.18 24.58 C6.7 16.23, 11.62 10.02, 21.44 0.37 M-0.37 23.45 C4.44 19.3, 9.86 12.64, 20.98 0.62 M0.94 28.71 C12.6 18.04, 22.05 8.03, 27.96 1.4 M0.03 30.28 C6.04 24.75, 10.78 16.63, 27.12 0.32 M1.68 36.45 C8.68 25.4, 22.38 10.34, 30.72 -1.02 M-0.42 36.16 C7.72 26.69, 18.3 15.77, 31.82 0.56 M4.03 42.04 C13.44 24.04, 27.55 12.58, 36.19 -0.26 M1.92 40.63 C13.79 27.01, 25.9 12.86, 36.26 0.86 M7.9 40.12 C15.46 32.13, 22.84 23.61, 43.77 1.39 M8.1 40.17 C17.91 27.1, 28.08 15.02, 42.6 -1.06 M12.42 39.19 C22.68 30.09, 29.46 17.75, 49.12 -0.84 M12.16 40.55 C21.82 30.59, 29.65 21.09, 47.89 1.05 M18.38 38.75 C29.16 28.84, 39.41 17.39, 51.98 -1.76 M18.15 39.73 C30.22 24.74, 42.75 10.91, 53.57 -0.81 M22.86 40.76 C32.04 32.76, 36.38 23.97, 59.47 0.24 M22.54 40.22 C35.02 25.5, 47.45 13.5, 57.45 -0.55 M29.1 40.07 C37.76 29.46, 47.69 16.99, 61.92 -0.44 M28.63 39.35 C35.86 30.65, 44.13 24.01, 63.15 -0.73 M35.79 40.87 C45.14 24.6, 58.81 13.86, 68.15 1.91 M33.54 40.54 C40.76 31.5, 48.57 23.34, 68.08 -0.28 M38.85 39.13 C48.66 31.06, 52.35 24.22, 73.31 0.69 M38.71 39.61 C47.57 29.33, 56.52 18.42, 74.92 -1.23 M44.79 39.01 C50.51 33.75, 57.19 23.92, 78.2 -0.55 M44.82 40.03 C52.87 29.76, 63.04 18.47, 79.58 -0.41 M48.52 39.33 C60.79 30.12, 67.67 16.6, 85.03 0.32 M50.27 39.19 C63.69 25.13, 77.14 9.25, 84.66 -0.19 M54.63 41.99 C68.73 26.99, 80.05 11.64, 88.81 -1.53 M56.19 39.75 C64.42 26.88, 76.33 15.33, 89.42 -0.15 M59.21 38.42 C72.33 22.94, 88.82 7.74, 97.1 -1.5 M60.84 39.83 C71.96 28.72, 80.49 17.12, 95.28 0.12 M67.2 41.98 C79.41 25.31, 94.06 11, 101.36 0.93 M66.65 40.37 C77.26 26.85, 90.14 12.99, 99.75 -0.61 M70.15 38.47 C83.09 25.16, 96.71 10.98, 104.72 -1.4 M70.63 39.34 C84.66 22.52, 98.66 7.63, 105.9 -0.01 M75.58 38.49 C86.89 28.33, 97.88 16.93, 109.35 -0.86 M77.37 39.11 C84.84 32.39, 91.83 22.39, 110.37 0.17 M80.08 40.67 C94.45 25.04, 107.38 12.51, 115.57 2.11 M80.85 39.39 C91.56 27.53, 102.24 16.08, 116.14 0.06 M85.97 40.36 C98.67 26.59, 106.15 17.6, 120.47 1.74 M86.69 40.8 C100.05 24.94, 111.61 10.42, 121.79 0.23 M91.85 40.29 C100.7 31.91, 107.94 23.97, 126.47 -0.41 M91.38 39.43 C103.7 25.44, 116.17 11.71, 127.76 1.26 M99.76 39.78 C106.4 33.25, 113.07 22.1, 134.53 -0.27 M97.12 40.82 C104.77 31.43, 112.93 24.61, 132.15 0.7 M102.51 41.19 C115.1 25.21, 131.93 7.38, 137.41 1.2 M101.77 40.28 C112.49 30.02, 121.68 19, 137.72 0.39 M107.48 38.31 C117.26 30.43, 126.35 20.85, 135.62 7.23 M108.34 40.14 C114.65 32.85, 121.05 25.16, 136.39 7.54 M111.92 38.85 C116.56 34.25, 122.69 29.5, 137.72 11.79 M112.93 40.07 C119.82 32.03, 127.7 23.93, 137.32 12.13 M118.81 40.82 C124.34 34.58, 127.3 29.24, 139.19 20.42 M118.21 40.31 C122.53 35.85, 126.11 31.41, 138.33 19.54 M124.1 39.05 C128.28 33.67, 133.45 29.24, 138.2 26.12 M123.41 40.01 C126.73 35.87, 129.55 32.06, 137.36 25.34 M129.03 40.86 C130.88 37.15, 134.42 34.93, 137.9 31.53 M129.72 40.21 C132.21 36.82, 133.62 34.95, 137.65 31.37 M134.37 40.15 C134.81 39.39, 135.35 38.89, 137.08 36.97 M134.62 40.04 C135.54 39.44, 136.4 38.21, 137.08 37.2 M0.05 38.05 C0.05 38.05, 0.05 38.05, 0.05 38.05 M0.05 38.05 C0.05 38.05, 0.05 38.05, 0.05 38.05 M6.6 39.15 C5.17 36.58, 3.68 35.94, -0.7 32.47 M6.32 38.5 C4.61 37, 2.67 35.43, -0.17 32.33 M13.53 39.07 C7.99 36.53, 7.29 32.5, 0.26 28.59 M12.83 37.34 C8.41 33.56, 2.57 30, -0.67 27.24 M20.33 36.21 C11.31 35.09, 6.14 26.83, -2.32 20.49 M19.16 38.07 C12.6 32.49, 5.99 26.04, 0.37 22.1 M23.09 39.39 C17.43 31.06, 8.33 25.39, -1.44 18.67 M23.89 38.7 C15.76 30.92, 8.43 23.24, -0.46 17.3 M30.28 37.44 C22.65 33.2, 16.14 24.29, 1.54 9.92 M30.47 37.2 C21.87 30.8, 13.23 23.58, 0.15 11.86 M38.45 36.63 C28.36 28.86, 14.96 21.53, -1.07 6.41 M37.02 39.12 C26.11 29.5, 15.74 20.34, 0.8 5.8 M43.42 39.39 C29.25 25.21, 15.19 13.46, 1.65 2.35 M42.01 37.7 C26.33 22.89, 10.29 10.42, -0.33 1.3 M49.09 36.71 C38.9 28.43, 27.15 19.42, 0.76 -4.19 M48.78 39.15 C31.49 23.11, 14.72 7.58, 2.73 -1.58 M54.71 35.94 C35.93 21.93, 18.15 6.34, 9 -2.19 M55.39 38.27 C40.6 25.73, 26.25 12.58, 8.99 -3.05 M59.52 36.56 C44.31 20.31, 23.66 6.79, 14.83 -4.48 M60.99 37.04 C48.25 26.86, 35.92 14.78, 15.11 -2.46 M66 37.96 C52.56 27.35, 38.98 15.74, 20.1 -4.12 M67.64 38.3 C52.07 25.51, 36.09 11.53, 20.75 -1.9 M72.7 39.84 C55.38 22.26, 39.37 10.36, 26.74 -2.55 M72.87 36.98 C59.34 25.61, 44.54 12.6, 25.98 -2.46 M81.07 36.67 C68.74 27.46, 59.12 20.7, 33.41 -1.87 M79.17 38.34 C61.82 22.09, 44.17 6.85, 33.52 -1.71 M84.72 39.5 C71.07 25.81, 56.75 11.12, 38.78 -0.99 M84.84 38.7 C75.19 29.21, 64.16 20.89, 38.66 -1.97 M92.07 37.65 C76.26 22.01, 57.34 10.67, 46.31 -3.25 M91.36 38.94 C80.15 27.29, 67.71 18.09, 43.8 -3.1 M99.59 36.54 C81.67 21.87, 61.83 11, 51.14 -1.99 M98.22 39.19 C81.4 24.45, 67.3 10.62, 51.86 -2.23 M102.6 36.12 C91.82 27.86, 79.9 17.15, 57.32 -2.72 M104.49 37.1 C84.99 22.45, 65.85 5.22, 57.28 -3.09 M108.19 39.28 C94.51 26.33, 81.02 12.62, 64.43 -1.43 M109.24 39.06 C91.51 22.02, 73.25 7.16, 63.23 -2.46 M114.39 39.68 C97.99 24.79, 83.26 10.47, 68.88 -2.74 M115.52 37.9 C100.9 25.87, 86.84 13.24, 68.57 -1.48 M122.85 37.42 C108.59 26.27, 97.94 15.12, 74.69 -1.5 M122.58 37.43 C106.43 25.36, 91.19 11.1, 75.33 -3.44 M130.08 38.91 C109.43 21.94, 94.53 6.27, 82.34 -2.39 M127.84 38.12 C111.33 23.66, 93.58 6.72, 81.19 -2.46 M132.29 37.28 C122.08 26.22, 108.16 13.59, 88.07 -4.06 M133.33 38.37 C117.85 23.11, 103.61 9.37, 87.41 -1.89 M137.95 36.8 C121.06 23.81, 107.66 9.7, 92.45 -3.46 M138.96 36.74 C127.9 28.29, 117.93 17.97, 93.09 -1.68 M136.84 30.01 C123.87 21.77, 113.89 10.95, 99.66 -3.97 M139.2 31.96 C124.88 19.13, 111.14 7.99, 99.12 -2.77 M139.4 24.07 C130.83 18.15, 121.58 9.27, 106.36 -3.02 M139.08 25.13 C126.94 16.43, 118.67 9.36, 106.65 -1.83 M136.54 21.27 C130.49 16.28, 123.98 7.45, 112.44 -1.69 M137.64 21.05 C129.27 13.36, 120.7 4.55, 112.55 -2.97 M138.62 14.2 C130.52 10.03, 124.03 4.87, 118.39 -2.82 M137.64 15.22 C129.73 8.56, 122.48 1.4, 118.39 -3.08 M140.03 9.41 C135.57 5.7, 130.62 5.08, 123.82 -1.44 M137.83 10.34 C133.99 5.15, 129.58 2.15, 123.71 -2.31 M138.08 3.4 C135.82 2.8, 134.95 0.59, 129.62 -2.43 M138 3.88 C136.03 2.82, 133.77 1.12, 130.65 -1.79" stroke="#ced4da" stroke-width="0.5" fill="none"></path><path d="M-0.96 1.01 C50.34 -2.96, 100.73 0.55, 138.5 -0.52 M0.6 -0.86 C43.39 -0.22, 88.59 -0.21, 136.42 -0.54 M138.46 1.52 C138.47 12.36, 136.06 23.44, 138.02 38.72 M136.06 0.81 C135.92 11.77, 136.03 23.48, 136.03 38.5 M135.74 38.43 C104.14 39.94, 73.75 36.66, -1.94 38.74 M137.89 38.28 C82.79 38.59, 28.5 38.86, -0.13 37.12 M-0.92 39.58 C-1.49 26.43, -0.45 19.01, -1.94 -0.24 M0.16 38.68 C0.11 24.44, 0.72 12.57, -0.26 -0.36" stroke="#000000" stroke-width="1" fill="none"></path></g><g transform="translate(64 453) rotate(0 8.5 12.5)"><text x="0" y="18" font-family="Virgil, Segoe UI Emoji" font-size="20px" fill="#000000" text-anchor="start" style="white-space: pre;" direction="ltr">_</text></g><g stroke-linecap="round" transform="translate(195 445) rotate(0 60 19.5)"><path d="M0 0 C0 0, 0 0, 0 0 M0 0 C0 0, 0 0, 0 0 M-0.22 6 C2.25 3.67, 3.06 2.65, 4.21 -0.36 M-0.36 6.11 C1.85 4.05, 4.12 1.45, 5.32 0.22 M-1.34 12.82 C2.15 7.94, 7.71 2.32, 9.47 0.53 M0.59 12.23 C2.05 9.02, 5.73 7.16, 9.93 -0.49 M-0.76 19.42 C6.82 13.72, 12.06 4.1, 13.66 0.82 M0.8 17.45 C4.09 13.83, 9.47 7.82, 15.54 -0.39 M0.95 25.16 C6.66 13.52, 16.07 4.77, 22.46 -1.38 M0.34 24.65 C6.02 17.36, 12.99 11.11, 22.25 0.4 M-1.98 31.86 C10.76 17.89, 20.02 7.36, 25.89 1.85 M0.53 30.74 C7.13 21.41, 15.24 12.61, 26.12 0.93 M0.51 37.52 C10.1 26.68, 20.99 14.17, 32.29 -1.03 M-0.95 36.03 C9.86 24.68, 20.27 11.79, 32.08 0 M2.35 39.08 C10.44 30.31, 21.02 16.16, 37.22 1.71 M2.39 40.43 C10.85 30.68, 19.65 20.45, 37.78 -0.73 M7.15 42.22 C17.91 27, 26.98 17.05, 41.12 1.6 M6.52 39.98 C16.78 30.01, 26.16 17.32, 43.13 -0.54 M13.34 39.26 C22.17 30.25, 31.78 18.77, 46.52 0.59 M11.8 40.31 C21.04 30.99, 27.12 22.99, 48.33 -0.4 M19.23 38.61 C29.57 26.55, 39.03 14.19, 51.71 -0.46 M16.93 40.82 C28.14 29.54, 35.94 19.95, 53.39 -0.79 M20.72 41.89 C37.42 24.58, 51.92 7.48, 59.97 0.85 M22.48 41.43 C31.5 29.91, 40.17 19.3, 58.17 -0.44 M27.81 38.71 C38.7 28.53, 47.85 18.11, 65.18 0.98 M28.3 40.02 C34.97 32.84, 42.11 22.89, 63.91 -0.15 M35.04 39.52 C44.41 27.33, 54.74 15.27, 69.11 1.02 M33.74 40.95 C44.39 28.41, 55.46 14.98, 69.26 0.47 M40.55 38.9 C45.69 31.64, 54.72 24.62, 75 -0.74 M39.57 40.97 C49.8 27.8, 60.56 16.58, 73.82 -0.83 M45.23 40.12 C53.56 28.61, 60.99 18.85, 80.82 1.75 M42.99 41.47 C57.44 24.58, 71.72 10.04, 80.16 0.32 M48.44 41.73 C56.66 33.43, 63.96 23.06, 84.95 -1.12 M50.19 39.71 C60.66 27.79, 70.83 17.08, 85.34 -0.9 M55.21 42.08 C69.02 26.61, 81 12.01, 91.34 -0.11 M55.37 41 C68.71 24.79, 80.46 10.83, 90.98 0.76 M59.85 41.9 C67.97 29.46, 75.81 23.53, 95.2 1.5 M59.25 39.96 C67.75 31.75, 75.57 23.61, 94.76 -1.22 M65.25 40.91 C75.14 28.64, 82.59 18.66, 100.23 -1.58 M66.13 40.73 C78.94 23.98, 93.05 9.93, 100.44 0.14 M70.47 40.28 C80.89 30.4, 88.76 21.93, 108.24 -0.07 M70.38 40.13 C79.97 30.8, 87.59 21.26, 105.43 -0.51 M73.99 39.31 C85.03 29.29, 94.63 22.23, 112.4 0.47 M75.55 39.99 C84.34 30.14, 93.79 18.95, 110.8 0.44 M81.34 41.88 C91.46 28.28, 100.64 18.34, 118.24 0.9 M80.8 40.27 C89.36 32.36, 98.4 21.67, 116.16 0.46 M88.36 41.12 C99.68 26.55, 114.07 6.68, 119.46 0.1 M86.02 41.34 C95.15 31.14, 103.17 23.09, 120.29 1.11 M92.84 41.88 C98.82 30.92, 109.47 20.75, 121.79 6.81 M92.31 41.13 C97.6 33.64, 103.82 26.77, 120.86 7.6 M97.69 41.35 C104.42 31.95, 110.18 24.66, 121.82 13.33 M97.01 41.45 C103.26 31.55, 112.14 23.34, 122.14 13.06 M102.69 39.59 C108.13 35.73, 110.68 30.45, 121.07 19.2 M102.28 41.12 C106.63 34.66, 111.9 29.03, 120.81 19.96 M107.62 40.14 C111.01 38.04, 116.93 30.03, 121.61 25.21 M108.06 40.22 C110.78 38.33, 114.19 34.61, 120.55 24.74 M112.54 40.42 C115.48 38.16, 118.82 34.12, 120.83 30.61 M112.96 39.69 C114.79 38.28, 117.3 35.92, 120.67 30.64 M118.33 40.67 C119.09 40.03, 119.9 39.14, 121.29 37.69 M118.26 40.44 C119.31 39.72, 120.18 38.57, 121.09 37.56 M0.31 39.27 C0.31 39.27, 0.31 39.27, 0.31 39.27 M0.31 39.27 C0.31 39.27, 0.31 39.27, 0.31 39.27 M6.18 38.58 C3.88 37.4, 3.09 36.59, -0.03 33.9 M5.9 39.04 C4.33 37.25, 2.76 35.52, 0 33.34 M11.67 39.53 C8.92 35.2, 4.74 32.01, 1.64 27.32 M12.94 38.97 C9.64 36.6, 5.63 32.72, 0.53 28.72 M18.97 39.04 C9.48 32.74, 5.24 27.59, -0.3 21.64 M17.44 37.83 C10.78 31.86, 3.67 26.7, -0.43 23.93 M26.32 38.55 C13.99 28.68, 4.38 23.54, -1.52 17.41 M24.63 39.85 C15.21 32.23, 7.03 24.07, 0.28 18.73 M30.81 39.36 C24.15 31.37, 17.11 26.51, -1.35 10.86 M30.82 38.88 C21.08 31.17, 14.01 23.79, 0.1 12.71 M38.29 40.17 C25.84 31.01, 13.82 20.13, 2.08 7.76 M36.18 38.03 C25.65 29.32, 15.5 20.02, 0.98 8.29 M41.89 37.73 C27.51 24.44, 11.03 11.27, 0.57 2.37 M43.38 39.84 C30.1 28.52, 15.63 16.35, 0.61 2.64 M47.18 38.77 C30.89 26.28, 17.3 12.75, -0.13 -1.41 M47.59 38.89 C38.03 28.08, 25.86 18.2, 2.28 -1.44 M54.67 39.88 C41.41 25.47, 24.88 15.8, 8.77 -2.08 M54.86 39.28 C40.74 28.07, 29.15 17.05, 8.88 -1.01 M60.9 39.42 C46.98 27.03, 32.72 14.21, 12.83 -3.86 M62.03 39.22 C43.08 24.08, 24.31 8.92, 14.38 -2.57 M65.2 38.08 C57.2 30.71, 44.27 20.41, 19.07 -3.71 M67.36 39.27 C52.94 27.6, 39.67 14.49, 19.45 -2.45 M74.39 37.39 C63.65 28.72, 49.79 20.48, 26.67 -1.25 M73.99 39.49 C58.36 26.21, 43.12 13.23, 25.93 -3.1 M77.9 37.73 C66.55 27.41, 52.34 15.64, 31.39 -0.96 M79.04 39.07 C65.81 27.28, 53.24 15.37, 32.18 -2.58 M84.25 40.07 C69.28 24.26, 50.65 9.59, 36.77 -2.22 M84.81 38.8 C72.21 28.68, 60.67 16.96, 38.01 -1.02 M92.24 40.04 C76.57 27.44, 65.88 14.58, 42.78 -0.79 M91.89 38.73 C79.11 27.58, 65.51 17.21, 44.29 -1.33 M95.63 38.36 C83.58 27.46, 66.06 11.55, 52.57 -0.25 M96.64 39.3 C84.01 26.76, 69.77 16.65, 51.48 -1.11 M101.82 37.43 C87.8 23.53, 67.95 8.15, 57.6 -4.05 M103.74 39.55 C87.07 25.73, 71.91 10.6, 55.59 -1.96 M109.04 37.29 C96.58 28.81, 86.12 19.7, 64.13 -3.68 M110.22 37.76 C90.63 23.16, 72.43 6.67, 62.56 -2.03 M116.81 39.42 C105.68 31.45, 96.76 23.26, 70.34 -2.74 M115.73 38.93 C105.5 29.69, 93.9 20.68, 68.2 -1.4 M121.58 37.42 C109.75 27.22, 97.67 18.56, 73.1 -0.35 M121.1 38.03 C107.51 24.99, 94.3 13.85, 74.78 -1.89 M120.19 34.15 C106.33 20.35, 94.81 9.47, 80.57 -0.69 M121.55 32.91 C106.46 20.46, 91.61 8.56, 80.56 -1.88 M119.87 28.92 C106.51 16.47, 94.39 5.87, 87.47 -2.95 M121.61 28.04 C111.71 19.91, 103.9 12.96, 86.77 -2.66 M121.59 24.11 C115.06 18.25, 107.89 12.89, 91.45 -3.6 M120.26 22.9 C113.55 16.65, 108.88 11.32, 92.96 -1.99 M121.77 17.15 C114.95 10.01, 107.39 4.3, 100.33 -2.36 M121.53 16.47 C111.67 9.11, 105.26 2.87, 99.98 -2.47 M122.75 12.25 C119.46 8.2, 112.52 6.46, 104.74 -3.69 M120.78 10.77 C115.2 5.64, 108.68 1.24, 105.51 -2.32 M120.95 7.09 C117.12 3.69, 113.85 0.49, 112.34 -0.88 M120.2 6.5 C117.62 3.43, 113.96 -0.53, 111.02 -1.47 M121.35 0.81 C119.85 0.47, 119.61 -0.01, 116.79 -1.91 M121.19 1.29 C120.2 0.48, 119.18 -0.3, 117.38 -2.1" stroke="#ced4da" stroke-width="0.5" fill="none"></path><path d="M1.8 -1.41 C26.98 -0.78, 57.67 3.03, 120.85 1.77 M-0.62 -0.75 C46.33 0.27, 92.47 0.07, 120.69 -0.16 M118.59 -0.19 C121.63 7.96, 120.07 20.42, 119.55 37.52 M119.03 0.64 C120.03 12.08, 119.9 25.39, 120.12 39.68 M121.99 39.26 C87.56 38.32, 56.04 36.48, -1.05 37.23 M119.95 38.26 C76.43 37.41, 33.91 38.64, 0.18 38.95 M0.36 37.06 C0.84 25.93, 0.67 15.64, 1.49 0.79 M-0.67 38.1 C0.35 28.75, 0.78 19.43, 0.92 -0.9" stroke="#000000" stroke-width="1" fill="none"></path></g><g stroke-linecap="round" transform="translate(348 443) rotate(0 60 19.5)"><path d="M0 0 C0 0, 0 0, 0 0 M0 0 C0 0, 0 0, 0 0 M-0.53 6.12 C1.09 5.38, 2.32 3.57, 4.26 0.68 M-0.47 6.3 C1.55 4.68, 2.6 2.63, 5.21 0.67 M0.61 13.35 C2.96 8.99, 4.8 5.9, 11.06 0.9 M0.2 12.55 C3.3 7.43, 7.14 4.5, 10.87 0.47 M-1.75 18.41 C5.39 15.41, 9.96 8.36, 13.76 -1.64 M-0.36 19.32 C6.41 12.21, 10.48 4.85, 14.74 -0.26 M-0.93 23.93 C7.89 14.33, 15.47 6.7, 23.01 1.09 M0.7 24.97 C5.08 18.16, 10.12 14.36, 21.32 0.23 M0.88 31.48 C10.54 19.27, 20.24 9.17, 25.18 1.84 M-0.66 30.95 C8.99 21.84, 15.65 11.02, 26.19 0.1 M-1.31 38.79 C11.4 25.15, 22.05 8.93, 30.44 -2.09 M0.08 36.88 C6.95 26.77, 15.5 17.6, 31.67 -0.09 M1.23 38.66 C12.16 26.75, 24.91 14.37, 38.04 2.05 M2.26 40.98 C12.16 28.98, 21.83 17.35, 36.83 0.06 M8.83 40.77 C19.03 29.05, 26.19 14.83, 42 -1.12 M6.78 40.51 C15.71 29.41, 25.63 18.67, 43.08 -1.08 M14.5 41.54 C21.6 31.85, 27.46 23.96, 48.29 -0.4 M12.99 39.25 C20.06 31.8, 28.14 22.44, 48.17 0.14 M16.97 41.64 C32.99 25.88, 42.81 8.24, 52.54 -1.58 M18.65 39.72 C28.01 28.54, 39.39 16.56, 53.73 0.76 M22.49 39.02 C32.37 26.94, 44.16 16.32, 57.21 -0.75 M23.46 41.86 C34.14 26.78, 47.76 12.16, 57.3 0.54 M29.25 39.8 C42.79 24.89, 53.37 9.81, 65.28 0.14 M28.44 40.54 C41.79 25.49, 54.9 8.77, 63.87 0.08 M33.87 39.05 C45.35 28.21, 56.57 14.58, 69.44 -0.06 M34.18 40.01 C47.75 26.2, 59.58 9.91, 67.9 0.12 M38.42 40.07 C48.07 29.76, 56.56 18.56, 73.77 -1.21 M38.76 39.89 C52.5 25.89, 66.21 10.04, 74.85 -0.31 M45.64 39.01 C54.5 29.03, 61.81 19.12, 78.94 0.74 M44.77 41.35 C52.59 29.32, 61.98 19.17, 79.22 -0.59 M50.59 39.38 C60.07 26.57, 70.63 14.41, 83.91 -1.74 M49.81 40.37 C56.17 31.14, 63.85 24.65, 84.08 -0.4 M55.84 40.68 C66.91 28.49, 76.62 16.75, 91.05 -1.12 M55.57 39.94 C61.97 32.2, 68.01 24.08, 89.08 -0.38 M59.2 40.86 C66.47 31.56, 74.26 22.52, 95.93 1.63 M60.34 41.26 C71.4 28.03, 82.48 13.65, 96.04 -0.03 M64.84 41 C75.04 30.91, 83.99 20.48, 100.43 -0.25 M66.03 40 C77.39 26.26, 89.46 13.98, 100.9 -0.38 M71.03 39.77 C83.95 25.67, 93.18 14.92, 106.44 1.12 M70.71 39.48 C80.77 28.99, 91.25 18.24, 105.32 0.14 M77.33 42.07 C87.1 26.53, 100.28 13.65, 113.07 -1.1 M75.64 40.93 C83.04 33.49, 91.68 23.06, 110.66 0.98 M80.23 41.53 C89.61 29.02, 102.34 18.34, 117.69 0.84 M81.83 40.66 C95.06 25.45, 107.88 10.15, 116.9 0.38 M88.37 41.13 C95.64 27.29, 106.94 18.45, 119.69 0.8 M87 40.32 C96.19 30.8, 104.89 19.72, 121.26 1.66 M90.26 39.71 C104.59 28.43, 113.12 14.24, 120.37 6.63 M92.2 40.09 C99.27 34.15, 105.47 25.26, 121.92 6.66 M97.37 40.59 C103.38 35.05, 108.36 29.63, 121.78 13.86 M96.77 40.91 C106.68 31.06, 115.3 20.55, 121.66 12.13 M103.94 42.06 C106.62 34.33, 112.86 27.03, 120.75 17.41 M102.9 39.71 C108.97 34.25, 114.22 26.36, 121.83 19.07 M106.07 42.01 C112.92 35.16, 116.35 32.33, 120.57 25.54 M108.68 41.61 C112.94 36.31, 116.5 29.78, 120.77 25.38 M113.43 40.39 C115.29 36.39, 119.19 35.27, 121.34 32.13 M112.91 40.8 C116.12 37.26, 117.61 34.43, 121.78 30.7 M118.01 40.53 C118.85 39.46, 119.73 38.65, 120.96 37.79 M118.42 40.61 C119.15 39.45, 120.04 38.52, 120.84 37.72 M0.31 39.27 C0.31 39.27, 0.31 39.27, 0.31 39.27 M0.31 39.27 C0.31 39.27, 0.31 39.27, 0.31 39.27 M6.04 38.96 C4.11 37.98, 2.77 35.53, 0.42 33.69 M6.08 38.59 C3.97 36.85, 2.27 35.06, -0.08 33.41 M12.86 40.4 C6.57 35.03, 3.27 32.03, -0.15 27.78 M12.99 39.29 C8.56 36.83, 5.46 34.04, 0.45 28.84 M19.25 37.24 C10.54 34.66, 5.32 29.9, 0.2 23.29 M18.28 39.33 C13.48 35.52, 9.2 30.69, 0.69 22.12 M23.79 38.09 C19.56 34.99, 10.69 29.48, 2.17 16.51 M23.94 39.64 C16.9 32.28, 8.58 23.49, 0.82 17.03 M31.18 39.84 C25.22 31.64, 17.87 29.5, -1.83 12.27 M30.94 38.67 C19.69 30.55, 9.29 20.2, -0.53 12.17 M36.49 40.65 C29.87 30.06, 22.04 23.02, 0.14 8.95 M36.12 39.01 C29.17 32.58, 21.01 26.81, -0.17 7.87 M43.92 40.9 C30.29 26.33, 13.77 17.15, -0.16 1.54 M42.89 39.62 C29.03 28.48, 16.65 18.16, -1.11 2.17 M47.99 39.07 C33.97 29.17, 22.63 16.56, 0.83 -1.19 M49.25 38.43 C33.96 25.92, 19.85 12.86, 1.31 -2.38 M56.02 39.59 C37.74 25.37, 22.63 8.4, 7.63 -0.74 M54.08 39.81 C40.68 27, 28.24 15.35, 7.42 -2.08 M61.26 40.82 C44.13 22.98, 24.23 7.67, 15.33 -0.23 M61.19 39.21 C43.83 23.2, 25.16 7.9, 14.67 -1.8 M65.63 39.56 C47.03 21.57, 29.11 8.32, 18.43 -3.38 M67.81 39.35 C50.39 24.37, 33.72 10.17, 19.3 -1.25 M72.37 37.59 C58.65 24.81, 44.09 13.22, 25.43 -0.44 M74.16 39.38 C60.83 26.56, 46.27 15.21, 24.78 -1.33 M77.25 39.62 C62.84 23.72, 49.31 13.52, 31.28 -2.41 M78.44 38.53 C69.51 29.62, 60.06 20.64, 33.11 -1.66 M84.99 39.16 C68.66 25.01, 51.22 6.87, 36.59 -3.06 M86.17 38.59 C66.54 24.8, 48.93 9.32, 37.89 -0.93 M92.46 40.41 C78.52 30.28, 66.67 19.69, 44.3 -0.4 M91.17 39.48 C73.72 23.76, 54.66 6.74, 43.77 -1.71 M97.36 40.84 C86.15 27.16, 71.85 18.38, 50.37 -0.15 M97.1 38.51 C79.33 24.09, 62.73 8.3, 51.08 -2.32 M104.93 39.72 C90.81 28.14, 74.8 16.14, 56.97 -3.78 M104.02 38.52 C85.16 23.43, 68.4 7.38, 55.77 -2.12 M109.09 38.08 C95.42 23.06, 77.12 8.5, 62.92 -0.66 M110.38 38.5 C96.23 28.83, 83.42 16.56, 61.77 -2.11 M114.94 38.51 C100.17 25.42, 83.16 13.98, 68.86 -0.15 M115.34 39.11 C104.8 29.3, 95.01 20.36, 68.96 -2.27 M122.38 39.83 C110.43 26.84, 97.83 19.48, 75.97 -3.01 M121.27 37.92 C101.71 22.23, 84.62 6.93, 73.71 -1.38 M121.57 34.29 C108.67 20, 94.77 8.23, 82.63 -2.93 M121.03 32.33 C107.14 21.9, 92.24 8.56, 80.47 -1.84 M118.94 26.68 C109.88 18.35, 100.3 12.04, 87.61 -0.49 M120.8 27.27 C106.7 16.72, 93.93 5.04, 86.72 -2.04 M120.54 20.99 C111.32 13.7, 98.33 1.65, 94.54 -1.42 M121.34 21.64 C110.47 14.2, 101.88 3.98, 92.3 -1.88 M121.73 16.38 C112.52 10.67, 106.41 3.73, 99.03 -2.57 M120.46 16.77 C115.51 12.24, 112.17 8.75, 100.44 -1.17 M121.67 10.94 C117.81 6.4, 110.52 5.28, 105.44 -1.42 M121.4 11.96 C114.58 7.28, 109.29 1.12, 105.26 -2.41 M120.08 5.43 C116.42 3.89, 114.04 -0.57, 112.72 -2.84 M120.25 6.28 C117.05 3.14, 114.98 0.51, 112.03 -2.32 M121.2 1.06 C120.19 0.49, 118.15 -1.06, 116.78 -2.3 M121.01 0.99 C119.75 -0.3, 118.26 -1.25, 117.09 -2.36" stroke="#ced4da" stroke-width="0.5" fill="none"></path><path d="M-1.58 1.11 C44.24 2.44, 90.82 0.51, 118.41 -1.14 M-0.64 -0.96 C29.02 -0.91, 56.57 -0.22, 120.91 0.3 M120.05 0.84 C119.01 10.19, 118.35 19.72, 119.11 37.14 M119.26 0.02 C121.12 11.42, 120.34 24.22, 119.3 39.75 M119.77 37.2 C94.37 37.6, 70.84 36.99, -1.47 37.4 M119.48 39.45 C81.37 37.62, 43.15 38.6, -0.37 38.01 M1.76 37.16 C1.62 26.11, -1.11 12.68, -0.19 -0.45 M-0.43 38.09 C0.06 24.77, -0.37 11.48, 0.87 -0.27" stroke="#000000" stroke-width="1" fill="none"></path></g><g stroke-linecap="round" transform="translate(216 453) rotate(0 13 9.5)"><path d="M0 0 C0 0, 0 0, 0 0 M0 0 C0 0, 0 0, 0 0 M0.13 6.93 C1.47 5.58, 1.25 3.08, 5.19 0.38 M-0.66 6.16 C1.56 4.67, 2.82 2.94, 4.7 0.75 M1 10.45 C2.24 7.91, 5.83 6.23, 9.58 -0.3 M0.58 11.75 C2.58 9.81, 5.44 7.32, 11.01 0.74 M1.25 19.06 C5.36 11.03, 12.92 4.13, 17.18 -0.05 M0.13 18.3 C4.58 12.86, 9.57 6.02, 16.26 0.4 M3.54 21.58 C9.84 15.9, 14.45 8.17, 20.34 0.64 M2.04 20.52 C9.14 13.27, 14.73 7.37, 21.37 -0.23 M6.7 19.66 C13.94 15.08, 15.73 11.24, 27.7 -0.86 M8.05 21.87 C14.22 15.15, 19.8 8.19, 25.26 0.29 M15.05 21 C15.39 15.99, 20.62 12.64, 27.64 6.26 M12.92 20.86 C17.65 16.33, 19.96 13.36, 25.6 6.45 M17.93 21.39 C21.81 18.42, 24.11 14.82, 26.6 11.34 M18.56 21.84 C20.52 18.28, 23.33 16.46, 26.01 12.36 M23.86 21.16 C24.51 20.23, 25.13 19.34, 26.08 18.62 M24.19 21.14 C24.58 20.35, 25.24 19.89, 26.03 18.86 M-0.35 18.69 C-0.35 18.69, -0.35 18.69, -0.35 18.69 M-0.35 18.69 C-0.35 18.69, -0.35 18.69, -0.35 18.69 M5.31 19.36 C3.94 17.9, 2.39 16.68, 0.48 12.97 M5.84 18.64 C4.56 17.06, 2.24 16.01, 0.03 13.74 M11.34 19.16 C8.58 16.22, 6.03 14.45, 1.06 9.03 M12.48 18.98 C9.17 15.79, 5.32 13.55, 0.62 8.02 M16.47 17.92 C12.91 15.15, 9.47 10.72, -0.53 3.08 M18.54 18.78 C13.19 15.13, 9.74 10.57, -0.62 2.76 M23.74 19.55 C13.95 9.57, 5.89 4.57, 2.72 0.61 M25.09 18.49 C17.83 13.19, 13.07 8.77, 1.29 -2.1 M29.11 15.87 C24.64 11.22, 18.24 8.14, 6.64 -1.11 M27.09 17.41 C20.92 11.71, 15.8 6.01, 6.86 -0.33 M29.46 13.59 C22.93 7.45, 17.24 2.68, 12.94 0.14 M28.39 12.65 C22.37 6.84, 18.74 4.1, 13.81 -2.07 M28.63 5.7 C24.97 3.76, 24.89 2.35, 20.52 -2.12 M27.57 6.06 C25.43 4.25, 23.42 1.62, 19.03 -1.38" stroke="#82c91e" stroke-width="0.5" fill="none"></path><path d="M0.26 -0.18 C7.37 0.31, 12.6 -1.31, 24.23 1.12 M-0.74 -0.83 C5.79 -0.61, 13.79 0.19, 25.95 -0.05 M24.15 1.08 C24.55 8.1, 25.7 15.76, 26.75 18.21 M25.14 0.47 C26 7.25, 26.71 13.62, 25.14 19.37 M26.57 17.54 C15.92 19.11, 6.77 19.24, 0.41 18.55 M25.47 18.04 C17.96 18.4, 8.87 18.82, -0.11 19.29 M-0.93 20.78 C-1.8 13.99, 0.49 7.93, -1.71 1.79 M-0.68 19.09 C0.08 14.14, -0.43 8.92, -0.33 0.43" stroke="#000000" stroke-width="1" fill="none"></path></g><g stroke-linecap="round" transform="translate(369 451) rotate(0 13 9.5)"><path d="M0 0 C0 0, 0 0, 0 0 M0 0 C0 0, 0 0, 0 0 M-0.54 6.53 C1.68 4.78, 2.81 2.11, 5.31 0.4 M-0.36 6.6 C1.27 4.44, 2.49 3.38, 5.3 0.04 M1.44 12.51 C2.4 8.94, 4.63 6.29, 11.56 0.69 M0.64 11.57 C2.81 8.21, 7.15 5.12, 11.13 -0.33 M-0.16 19.86 C6.7 14.58, 9.49 5, 13.65 1.53 M0.75 19.2 C3.97 13.28, 6.92 8.89, 15.03 0.95 M2.74 20.98 C6.62 15.61, 12.48 12.04, 22.42 -1.61 M3.78 21.37 C9.12 13.85, 17.49 5.46, 21.56 0.55 M8.88 22.74 C14.82 14.57, 22.87 3.68, 27.79 0.62 M8.34 22.38 C15.93 12.59, 21.85 4.95, 26.05 1.02 M15.34 20.59 C18.65 15.59, 19.64 12.13, 24.1 5.78 M13.53 20.16 C16.39 16.31, 20.2 12.32, 26 6.74 M17.55 21.13 C20.23 19.44, 22.74 16.11, 27.45 12.24 M18.94 21.26 C20.77 18.51, 22.93 16.46, 26.26 12.29 M24.17 21.28 C24.98 19.88, 25.43 19.09, 25.97 18.65 M24.13 20.86 C24.79 20.15, 25.51 19.55, 25.98 18.62 M-0.35 18.69 C-0.35 18.69, -0.35 18.69, -0.35 18.69 M-0.35 18.69 C-0.35 18.69, -0.35 18.69, -0.35 18.69 M6.47 19.74 C4.45 16.75, 1.7 15.54, -0.55 13.63 M5.7 18.91 C4.41 18, 2.73 16.42, 0.38 13.78 M10.91 17.78 C8.65 15.38, 7.37 12.93, -0.38 9.69 M13.18 18.44 C8.11 15.14, 3.49 10.51, 0.65 9.34 M17.34 19.61 C13.67 13.35, 9.83 13.26, 0.33 4.66 M18.08 18.69 C13.7 14.18, 7.62 10.55, 0.26 3.4 M22.63 19.51 C17.12 11.98, 8.93 5.75, 0.88 0.26 M23.59 19.82 C20.07 14.3, 14.19 9.93, 1.05 -1.61 M27.42 16.66 C20.7 9.49, 13.09 3.53, 6.52 0.63 M27.24 16.4 C24.29 12.72, 19.55 9.42, 7.42 -1.25 M26.36 12.47 C23.55 6.57, 20.61 4.13, 13.75 -2.29 M28.7 11.42 C22.38 7.65, 17.74 3.18, 12.42 -1.27 M27.23 5.69 C25 3.52, 23.07 1.62, 18.72 -2.19 M27.77 5.55 C25.49 4.25, 24.69 2.46, 19.46 -1.07" stroke="#82c91e" stroke-width="0.5" fill="none"></path><path d="M1.11 -1.4 C9.5 -0.24, 15.33 -1.39, 24.86 -1.26 M-0.96 0.61 C6.93 -0.09, 14.94 1.07, 26.3 -0.48 M26.8 -0.94 C26.48 4.13, 26.19 10.54, 24.23 19.17 M26.01 0.78 C25.28 7.18, 26 13.6, 26.72 18.07 M24.2 17.56 C16.48 18.21, 6.63 17.5, -1.6 19.48 M26.45 19.24 C15.08 19.76, 5.76 18.49, -0.99 19.47 M-1.75 20.74 C0.69 11.44, 0.8 5.41, -0.43 0.93 M-0.86 19.03 C-0.47 13.06, -0.17 8.7, -0.26 -0.87" stroke="#000000" stroke-width="1" fill="none"></path></g><g stroke-linecap="round" transform="translate(263 453) rotate(0 13 9.5)"><path d="M0 0 C0 0, 0 0, 0 0 M0 0 C0 0, 0 0, 0 0 M-0.94 5.96 C1.56 3.7, 2.91 2.58, 5.07 0.23 M-0.5 6.05 C1.33 4.68, 2.08 3.46, 5.28 0.13 M0.42 12.76 C4.15 9.31, 6.79 5.4, 9.05 -0.04 M0.78 12.03 C2.17 8.43, 5.67 5.53, 11.33 -0.21 M-1.39 18.08 C5.43 11.99, 7.24 9.24, 14.81 -0.18 M-0.61 18.44 C5.55 12.46, 10.48 5.99, 15.8 -0.5 M3.07 22.57 C7.18 13.36, 14.16 10.07, 20.01 0.03 M1.91 21.62 C7.87 14.18, 13.67 6.94, 21.12 -0.45 M8.36 23.35 C11.46 15.14, 18.3 11.26, 25.01 2.08 M8.35 21.95 C13.82 15.38, 19.38 8.32, 26.58 -0.16 M14.45 20.89 C16.46 15.38, 20.27 11.39, 24.79 5.93 M12.65 21.5 C16.22 17.65, 19.66 14.03, 26.55 5.81 M17.88 20.44 C21.43 17.62, 21.87 16.38, 26.45 12.43 M18.09 21.37 C20.12 18.9, 22.2 16.99, 26.64 12.45 M24.16 20.91 C24.8 20.17, 25.25 19.82, 26.21 18.47 M24.03 20.93 C24.69 20.39, 25.36 19.75, 26.08 18.73 M-0.35 18.69 C-0.35 18.69, -0.35 18.69, -0.35 18.69 M-0.35 18.69 C-0.35 18.69, -0.35 18.69, -0.35 18.69 M6.53 18.48 C4 17.31, 3.58 16.71, 0.17 13.03 M6.3 18.79 C4.95 17.44, 3.21 16.42, -0.16 13.68 M11.21 20.32 C7.94 16.68, 6.19 13.18, -0.63 9.77 M12.94 19.96 C7.93 15.44, 3.26 11.45, 0.29 9.33 M18.42 20.65 C10.34 12.42, 7.08 10.43, 1.33 1.7 M18.82 18.47 C12.95 14.47, 10.34 10.98, 0.88 2.17 M23.53 18.98 C17.54 14.06, 12.06 6.08, -0.73 -2.19 M24.54 19.4 C18.33 14.1, 13.27 9.78, 0.27 -0.4 M27.71 16.12 C21.65 13.5, 20.66 9.03, 7.66 -2.42 M27.8 17.71 C21.11 11.97, 15.12 6.5, 7.62 -1.64 M27.67 12.49 C24.95 8.39, 21.96 4.63, 12.8 -2.56 M27.49 12.09 C22.61 8.29, 19.19 3.79, 13.36 -1.85 M26.98 5.88 C24.49 3.59, 20.39 0.02, 20 -1.28 M28.24 6.09 C25.19 3.73, 23.13 2.33, 19.67 -1.54" stroke="#fa5252" stroke-width="0.5" fill="none"></path><path d="M-1.43 0.19 C7.55 1.27, 13.9 1.71, 25.3 0.91 M0.49 -0.99 C8.54 0.46, 16.08 -0.49, 26.35 -0.64 M26.44 -1.53 C25.36 5.83, 27.72 7.35, 24.92 19.89 M26.47 0.63 C27 4.54, 25.41 7.1, 26.24 19.03 M24.03 17.82 C20.47 19.29, 12.14 19.09, -1.42 20.94 M26.54 18 C18.17 18.63, 11.34 19.69, -0.65 18.83 M1.07 18.31 C0.04 15.92, 1.16 12.21, 0.89 1.83 M0.66 19.3 C-0.28 11.36, 0.4 4.04, 0.74 -0.18" stroke="#000000" stroke-width="1" fill="none"></path></g><g stroke-linecap="round" transform="translate(416 451) rotate(0 13 9.5)"><path d="M0 0 C0 0, 0 0, 0 0 M0 0 C0 0, 0 0, 0 0 M-0.13 6.74 C1.17 4.9, 1.55 3.84, 5.02 0.13 M-0.06 6.52 C1.09 4.41, 3.34 2.88, 4.66 0.18 M0.6 11.64 C3.24 7.49, 6.81 5.65, 11.36 -0.1 M-0.34 11.57 C2.62 9.58, 5.85 6.16, 10.33 0.15 M1.3 20.07 C5.65 13.44, 5.69 7.81, 16.82 -0.86 M0.63 18.64 C2.84 13.33, 6.58 9.04, 16.24 -0.1 M2.8 20.22 C9.73 13.51, 18.42 6.53, 19.72 1.3 M3.19 20.44 C8.25 16.35, 12.45 10.17, 21.88 0.86 M9.19 21.23 C15.46 14.89, 19.03 8.72, 26.58 2.12 M8.83 22.1 C11.17 16.33, 15.64 12.31, 26.98 -0.06 M13.08 22.75 C14.64 17.15, 17.73 12.69, 25.07 6.59 M12.65 20.16 C16.27 16.57, 19.75 13.58, 26.04 6.99 M18.25 20.41 C21.17 18.53, 22.45 18.84, 26.29 11.97 M18.38 21.44 C19.71 19.53, 21.75 17.44, 26.34 12.92 M24.44 21.04 C24.46 20.1, 25.1 19.65, 26.04 18.84 M24.02 20.97 C24.63 20.38, 25.37 19.56, 26.01 18.78 M-0.35 18.69 C-0.35 18.69, -0.35 18.69, -0.35 18.69 M-0.35 18.69 C-0.35 18.69, -0.35 18.69, -0.35 18.69 M6.83 19.17 C3.78 16.8, 2.46 15.51, -0.07 13.46 M6 18.99 C4.07 16.85, 1.58 15.24, 0.09 13.56 M11 18.71 C6.58 16.31, 2.08 9.98, 1.33 10.11 M11.66 19.52 C9.12 16.95, 5.4 14.14, 0.98 8.14 M18.88 18.5 C10.71 14.08, 8.87 9.85, 1.56 2.4 M17.95 19.29 C11.85 13.01, 6.64 9.09, 0.3 3.54 M24.91 19.64 C19.21 14.91, 14.93 9.81, 2.6 -3.08 M25.23 19.37 C18.62 13.85, 13.53 10.22, 0.73 -0.73 M27.8 16.75 C20.82 10.92, 14.94 4.99, 9.11 -2.65 M27.54 17.51 C22.39 12.37, 17.55 7.14, 7.22 -1.22 M28.96 11.37 C20.59 7.36, 15.91 1.99, 12.23 -0.91 M27.91 10.9 C22.24 6.07, 16.11 0.81, 13.25 -1.69 M27.43 5.54 C24.2 3.26, 21.32 0.15, 18.47 -2.05 M27.28 5.56 C24.85 4.23, 21.94 1.37, 19.58 -1.01" stroke="#fa5252" stroke-width="0.5" fill="none"></path><path d="M-1.4 1.74 C5.83 -0.34, 10.96 -1.29, 24.74 -0.36 M0.61 -0.4 C8.64 0.53, 18.7 0.55, 25.52 0 M25.06 0.35 C24.44 7.03, 25.16 12.17, 26.17 20.43 M26.78 -0.59 C25.91 4.53, 25.19 9.51, 25.07 19.53 M24.56 18.71 C19.85 17.87, 13.76 17.17, 0.48 20.92 M26.24 18.38 C20.74 19.48, 13.31 18.12, 0.47 19.53 M1.74 19.63 C-1.03 14.63, -0.34 8.34, 0.93 -0.14 M0.03 18.4 C-0.3 14.3, 0.91 9.95, -0.87 0.48" stroke="#000000" stroke-width="1" fill="none"></path></g><g transform="translate(225 447) rotate(0 5.5 12.5)"><text x="0" y="18" font-family="Virgil, Segoe UI Emoji" font-size="20px" fill="#000000" text-anchor="start" style="white-space: pre;" direction="ltr">x</text></g><g transform="translate(421 442) rotate(0 5.5 12.5)"><text x="0" y="18" font-family="Virgil, Segoe UI Emoji" font-size="20px" fill="#000000" text-anchor="start" style="white-space: pre;" direction="ltr">x</text></g></svg>